<?xml version="1.0" encoding="UTF-8"?>
<svg width="578px" height="135px" viewBox="0 0 578 135" version="1.1" xmlns="http://www.w3.org/2000/svg" xmlns:xlink="http://www.w3.org/1999/xlink">
    <!-- Generator: Sketch 52.4 (67378) - http://www.bohemiancoding.com/sketch -->
    <title>logo-dark</title>
    <desc>Created with Sketch.</desc>
    <g id="Page-1" stroke="none" stroke-width="1" fill="none" fill-rule="evenodd">
        <g id="logo-dark" transform="translate(0.000000, -1.000000)" fill="#000000">
            <path d="M294.835757,54.8881672 C294.981184,54.4518818 295.056244,54.0274519 295.056244,53.5959087 C295.056244,52.0855074 294.235282,51.3314924 292.605087,51.3314924 L271.067743,51.3314924 C268.649424,51.3314924 266.981699,52.5170507 266.052839,54.8881672 L246.223096,105.969131 C246.014337,106.405417 245.904093,106.829846 245.904093,107.266132 C245.904093,108.771791 246.718018,109.530548 248.359942,109.530548 L270.000492,109.530548 C272.409429,109.530548 274.091227,108.34499 275.008359,105.969131 L294.835757,54.8881672 Z M316.431741,48.6687285 C317.407513,50.7719089 316.921972,53.7618868 316.48569,54.8881672 L296.653601,105.969131 C294.134421,112.420939 287.17032,116.259777 280.67534,116.857298 C276.959902,117.198739 273.089654,116.814618 269.355451,116.857298 C259.142687,116.968741 248.922887,116.852556 238.705432,116.847814 C236.200326,116.847814 233.69522,116.857298 231.187768,116.857298 C225.218204,116.857298 222.328419,111.600533 225.000063,104.940067 C226.280763,101.736688 227.643559,98.2867135 228.86562,95.0311705 C230.94148,89.5064689 233.118201,84.0173341 235.224554,78.5068592 C237.213627,73.3022584 239.237884,68.1047709 241.285597,62.9286234 C242.320009,60.3109108 243.361458,57.7026826 244.346612,55.0731143 C244.367722,55.0138364 244.381796,54.9474451 244.409943,54.8881672 C247.914277,47.0658537 253.269293,44 259.440579,44 L309.871084,44 C312.779634,44 315.2261,46.0699848 316.431741,48.6687285 Z M365.397153,89.0679511 C365.397153,89.3561573 365.439562,89.6396772 365.503175,89.9231971 L372.045906,105.978391 C372.813976,107.831815 374.430221,108.759698 376.854589,108.759698 L382.633961,108.759698 C383.411456,108.759698 384.014602,108.930747 384.419842,109.291591 C384.471675,109.345483 384.507015,109.387659 384.554136,109.42515 C387.098662,111.904192 390.382986,114.184067 393.144268,115.282999 L393.144268,115.990627 C393.144268,115.990627 383.698893,116 379.778438,116 L358.121694,116 C355.687902,116 354.076368,115.072117 353.298874,113.218693 L343.768682,89.9231971 C343.047733,88.0650872 341.730705,87.1418901 339.803462,87.1418901 C337.873863,87.1418901 336.410761,88.3228326 335.411799,90.6612861 L326.955961,112.361104 C326.030037,114.793283 324.350178,116 321.921098,116 L307.462065,116 C305.829327,116 305,115.217391 305,113.65686 C305,113.314762 305.070681,112.88831 305.207332,112.389222 L325.141809,62.1077844 C326.058309,59.7013798 327.738168,58.4876334 330.162536,58.4876334 L344.621569,58.4876334 C346.268443,58.4876334 347.090702,59.2561833 347.090702,60.8214007 C347.090702,61.2478521 347.017665,61.6743036 346.87159,62.0937256 L341.087505,76.4009373 C340.948499,76.8906535 340.875461,77.3194481 340.875461,77.6732622 C340.875461,79.2244207 341.693008,80.0023431 343.34695,80.0023431 L365.074376,80.0023431 C367.51288,80.0023431 369.183314,78.7979693 370.118663,76.3821921 L378.576856,54.7667274 C378.784188,54.3379328 378.89021,53.9161677 378.89021,53.4780005 C378.89021,51.994793 378.070307,51.2473314 376.428145,51.2473314 L331.335845,51.2473314 C330.548927,51.2473314 329.94578,51.0411351 329.535828,50.6756053 C329.43923,50.5561052 329.352057,50.4483207 329.255459,50.3288206 C327.226906,47.9763083 324.046249,45.5863056 321.442822,44.5576673 L321.442822,44.0117157 C321.442822,44.0117157 329.144725,44.0117157 333.962832,44 L393.780399,44 C395.808952,44 397.889338,45.1575111 399.119192,46.7531893 C401.110048,49.3306431 401.54356,51.6316064 400.308993,54.726894 L391.848444,76.3048685 C390.107329,80.5108045 387.263585,83.5123666 383.347842,85.6165061 C381.644424,86.5326738 378.58628,87.1418901 376.642545,87.1418901 L367.969952,87.1418901 C366.266533,87.1418901 365.397153,87.7862536 365.397153,89.0679511 Z M577.83911,44.3484375 L577.83911,45.0539063 C575.517902,45.9773438 572.82709,47.7304688 570.515298,49.7507813 C570.322256,49.9289063 570.124506,50.1023438 569.940881,50.2757813 C568.886215,51.159375 567.805652,51.5859375 566.685069,51.5859375 L523.243631,51.5859375 C520.81884,51.5859375 519.149735,52.7578125 518.217485,55.10625 L509.66009,76.725 C509.51884,77.2242188 509.438798,77.6507813 509.438798,78.0070313 C509.438798,79.5679688 510.262756,80.3460938 511.898902,80.3460938 L548.06361,80.3460938 C553.497027,80.3460938 556.52684,86.4726563 554.707069,91.1039063 L548.937006,105.597656 C546.728798,111.13125 539.946444,116.355469 533.837381,116.355469 L482.062194,116.355469 C481.125235,116.355469 478.606277,116.355469 475.910756,116.346094 L467.419277,116.346094 L467.419277,115.635938 C469.79934,114.689063 472.549006,112.865625 474.903173,110.819531 C474.903173,110.798438 474.922006,110.789063 474.94084,110.775 C475.23511,110.5125 475.519965,110.257031 475.795402,109.996875 C476.624069,109.40625 477.631652,109.113281 478.829923,109.113281 L522.276069,109.113281 C524.630235,109.113281 526.304048,107.936719 527.311631,105.578906 L532.980465,91.0171875 C533.128777,90.590625 533.197048,90.1617188 533.197048,89.7351563 C533.197048,88.2445313 532.377798,87.4875 530.741652,87.4875 L494.569881,87.4875 C489.032881,87.4875 486.123131,81.2671875 488.039423,76.6476563 C488.039423,76.6476563 496.490881,55.06875 496.490881,55.0640625 C499.355902,48.1148437 505.559131,44.334375 511.585798,44.334375 L569.479465,44.334375 C573.48861,44.3484375 577.83911,44.3484375 577.83911,44.3484375 Z M488.532485,44 C490.175138,44 491,44.7826342 491,46.3432161 C491,46.6993849 490.889233,47.1258502 490.677126,47.6202688 L467.965145,105.239952 C466.668934,108.525141 464.109505,111.723631 462.110983,112.974908 C459.584549,114.556579 456.021146,116 452.863104,116 L402.193022,116 C396.758361,116 393.668664,110.027142 395.55642,105.239952 L414.917104,56.1917532 C412.46373,50.0314381 406.897091,46.7790543 402.032763,44.8318417 C402.032763,44.3983467 402.02805,44.0093729 402.02805,44.0093729 C402.02805,44.0093729 411.040254,44.0093729 416.100192,44.0046864 C416.121403,44 437.87183,44 437.87183,44 C439.50977,44 440.329918,44.7826342 440.329918,46.3432161 C440.329918,46.6993849 440.223864,47.1258502 440.007044,47.6202688 L417.295063,105.239952 C417.090026,105.66876 416.979259,106.090539 416.979259,106.521691 C416.979259,108.00729 417.79705,108.759462 419.446774,108.759462 L441.185418,108.759462 C443.615225,108.759462 445.295586,107.587854 446.217075,105.239952 L465.603684,56.1237999 C463.143239,50.008006 457.609594,46.7743678 452.761764,44.8318417 L452.761764,44.0093729 C452.761764,44.0093729 461.691482,44.0093729 466.774987,44.0046864 C466.786771,44 488.532485,44 488.532485,44 Z M209.445079,54.4152564 C209.653056,53.9255402 209.764135,53.4217652 209.764135,52.9273627 C209.764135,51.5777141 209.15911,50.9005467 207.939607,50.9005467 C206.015816,50.9005467 203.93368,51.8284301 201.714468,53.6748243 L173.781697,76.8859672 C172.919063,77.6006248 172.498382,78.240302 172.498382,78.8073418 C172.498382,79.3696954 172.987601,79.6532153 173.999127,79.6532153 L195.801294,79.6532153 C198.237938,79.6532153 199.9183,78.4558709 200.854198,76.0400937 L209.445079,54.4152564 Z M233.525543,44 C235.179908,44 236,44.787295 236,46.3431398 C236,46.6992971 235.898375,47.1304348 235.683307,47.6295236 L210.01229,112.389222 C209.076392,114.793283 207.400756,116 204.954659,116 L190.393884,116 C184.891939,115.990627 177.433116,115.990627 177.433116,115.990627 L177.433116,115.107264 C182.50729,113.080448 188.987674,107.909138 191.816638,103.443114 L196.796277,90.7573549 C197.013708,90.3309034 197.110606,89.9138245 197.110606,89.4850299 C197.110606,87.9924499 196.290514,87.2426451 194.650329,87.2426451 L167.034251,87.2426451 C164.609424,87.2426451 162.28386,88.1658422 160.059921,90.0192658 L132.117696,113.237438 C129.903211,115.072117 127.575283,116 125.143366,116 L124.233465,116 C122.300222,116 115.021016,116 110.265898,115.990627 L106,115.990627 L106,115.107264 C108.179035,114.233273 110.613315,112.796928 112.891612,111.088779 C114.02367,110.238219 115.122641,109.324395 116.138894,108.380109 L121.090172,104.256183 L190.131549,46.7766207 C192.421663,44.9278834 194.789768,44 197.216958,44 L233.525543,44 Z M139.45323,5.198 C139.45323,5.77065306 139.33808,6.31279592 139.13598,6.808 L134.20803,19.0050408 C134.20803,19.0050408 134.48768,12.6917755 134.19393,10.8001429 C134.05998,9.96463265 133.51948,9.36381633 132.66878,9.36381633 C132.34918,9.36381633 132.07188,9.42483673 131.80633,9.62667347 C125.32973,14.4660612 109.74688,30.7538163 78.24278,62.1065714 C52.16248,88.0472857 27.26423,113.01402 27.26423,113.01402 L26.71668,112.469531 C29.12308,98.6319796 28.45803,77.3569796 27.77888,73.1113673 C24.13403,70.2152449 16.76208,67.9246327 11.77303,67.9246327 C11.61793,67.5420816 11.47928,67.2088163 11.47928,67.2088163 C11.47928,67.2088163 23.90373,62.1934082 26.29133,61.2311633 C17.57048,55.5562653 6.65003,54.8240204 0.28858,55.913 C0.14758,55.5656531 -0.00047,55.1995306 -0.00047,55.1995306 C-0.00047,55.1995306 16.92188,48.3699388 18.24963,47.8324898 C12.58613,45.0818776 7.58768,45.4761633 7.58768,45.4761633 L7.29863,44.7603469 L105.05158,5.31769388 L116.38563,8.23728571 L94.68338,16.9866735 L106.01508,19.9086122 L116.38563,8.23728571 L133.68398,1.26922449 C134.16103,1.08146939 134.68038,0.97585714 135.22088,0.97585714 C137.56148,0.97585714 139.45323,2.86514286 139.45323,5.198 Z M37.0522773,106.319997 L75.1713834,68 L64.490588,100.599464 L70.3717408,104.669661 L111.728308,82.8411853 L99.5159628,77.8830739 L118.66034,73.9075873 L126,84.7188273 C126,84.7188273 63.77665,135.2139 62.777608,136 C50.4521633,130.206066 37.9028767,119.425607 35,116.262265 C36.0249605,112.400432 37.0522773,106.319997 37.0522773,106.319997 Z" id="Shape"></path>
        </g>
    </g>
</svg>