<svg height="135" viewBox="0 0 578 135" width="578" xmlns="http://www.w3.org/2000/svg"><path d="m294.835757 54.8881672c.145427-.4362854.220487-.8607153.220487-1.2922585 0-1.5104013-.820962-2.2644163-2.451157-2.2644163h-21.537344c-2.418319 0-4.086044 1.1855583-5.014904 3.5566748l-19.829743 51.0809638c-.208759.436286-.319003.860715-.319003 1.297001 0 1.505659.813925 2.264416 2.455849 2.264416h21.64055c2.408937 0 4.090735-1.185558 5.007867-3.561417zm21.595984-6.2194387c.975772 2.1031804.490231 5.0931583.053949 6.2194387l-19.832089 51.0809638c-2.51918 6.451808-9.483281 10.290646-15.978261 10.888167-3.715438.341441-7.585686-.04268-11.319889 0-10.212764.111443-20.432564-.004742-30.650019-.009484-2.505106 0-5.010212.009484-7.517664.009484-5.969564 0-8.859349-5.256765-6.187705-11.917231 1.2807-3.203379 2.643496-6.6533535 3.865557-9.9088965 2.07586-5.5247016 4.252581-11.0138364 6.358934-16.5243113 1.989073-5.2046008 4.01333-10.4020883 6.061043-15.5782358 1.034412-2.6177126 2.075861-5.2259408 3.061015-7.8555091.02111-.0592779.035184-.1256692.063331-.1849471 3.504334-7.8223135 8.85935-10.8881672 15.030636-10.8881672h50.430505c2.90855 0 5.355016 2.0699848 6.560657 4.6687285zm48.965412 40.3992226c0 .2882062.042409.5717261.106022.855246l6.542731 16.0551939c.76807 1.853424 2.384315 2.781307 4.808683 2.781307h5.779372c.777495 0 1.380641.171049 1.785881.531893.051833.053892.087173.096068.134294.133559 2.544526 2.479042 5.82885 4.758917 8.590132 5.857849v.707628s-9.445375.009373-13.36583.009373h-21.656744c-2.433792 0-4.045326-.927883-4.82282-2.781307l-9.530192-23.2954959c-.720949-1.8581099-2.037977-2.781307-3.96522-2.781307-1.929599 0-3.392701 1.1809425-4.391663 3.519396l-8.455838 21.6998179c-.925924 2.432179-2.605783 3.638896-5.034863 3.638896h-14.459033c-1.632738 0-2.462065-.782609-2.462065-2.34314 0-.342098.070681-.76855.207332-1.267638l19.934477-50.2814376c.9165-2.4064046 2.596359-3.620151 5.020727-3.620151h14.459033c1.646874 0 2.469133.7685499 2.469133 2.3337673 0 .4264514-.073037.8529029-.219112 1.2723249l-5.784085 14.3072117c-.139006.4897162-.212044.9185108-.212044 1.2723249 0 1.5511585.817547 2.3290809 2.471489 2.3290809h21.727426c2.438504 0 4.108938-1.2043738 5.044287-3.620151l8.458193-21.6154647c.207332-.4287946.313354-.8505597.313354-1.2887269 0-1.4832075-.819903-2.2306691-2.462065-2.2306691h-45.0923c-.786918 0-1.390065-.2061963-1.800017-.5717261-.096598-.1195001-.183771-.2272846-.280369-.3467847-2.028553-2.3525123-5.20921-4.742515-7.812637-5.7711533v-.5459516s7.701903 0 12.52001-.0117157h59.817567c2.028553 0 4.108939 1.1575111 5.338793 2.7531893 1.990856 2.5774538 2.424368 4.8784171 1.189801 7.9737047l-8.460549 21.5779745c-1.741115 4.205936-4.584859 7.2074981-8.500602 9.3116376-1.703418.9161677-4.761562 1.525384-6.705297 1.525384h-8.672593c-1.703419 0-2.572799.6443635-2.572799 1.926061zm212.441957-44.7195136v.7054688c-2.321208.9234375-5.01202 2.6765625-7.323812 4.696875-.193042.178125-.390792.3515625-.574417.525-1.054666.8835937-2.135229 1.3101562-3.255812 1.3101562h-43.441438c-2.424791 0-4.093896 1.171875-5.026146 3.5203125l-8.557395 21.61875c-.14125.4992188-.221292.9257813-.221292 1.2820313 0 1.5609375.823958 2.3390625 2.460104 2.3390625h36.164708c5.433417 0 8.46323 6.1265625 6.643459 10.7578125l-5.770063 14.4937497c-2.208208 5.533594-8.990562 10.757813-15.099625 10.757813h-51.775187c-.936959 0-3.455917 0-6.151438-.009375h-8.491479v-.710156c2.380063-.946875 5.129729-2.770313 7.483896-4.816407 0-.021093.018833-.030468.037667-.044531.29427-.2625.579125-.517969.854562-.778125.828667-.590625 1.83625-.883594 3.034521-.883594h43.446146c2.354166 0 4.027979-1.176562 5.035562-3.534375l5.668834-14.5617185c.148312-.4265625.216583-.8554687.216583-1.2820312 0-1.490625-.81925-2.2476563-2.455396-2.2476563h-36.171771c-5.537 0-8.44675-6.2203125-6.530458-10.8398437 0 0 8.451458-21.5789063 8.451458-21.5835938 2.865021-6.9492188 9.06825-10.7296875 15.094917-10.7296875h57.893667c4.009145.0140625 8.359645.0140625 8.359645.0140625zm-89.306625-.3484375c1.642653 0 2.467515.7826342 2.467515 2.3432161 0 .3561688-.110767.7826341-.322874 1.2770527l-22.711981 57.6196832c-1.296211 3.285189-3.85564 6.483679-5.854162 7.734956-2.526434 1.581671-6.089837 3.025092-9.247879 3.025092h-50.670082c-5.434661 0-8.524358-5.972858-6.636602-10.760048l19.360684-49.0481988c-2.453374-6.1603151-8.020013-9.4126989-12.884341-11.3599115 0-.433495-.004713-.8224688-.004713-.8224688s9.012204 0 14.072142-.0046865c.021211-.0046864 21.771638-.0046864 21.771638-.0046864 1.63794 0 2.458088.7826342 2.458088 2.3432161 0 .3561688-.106054.7826341-.322874 1.2770527l-22.711981 57.6196832c-.205037.428808-.315804.850587-.315804 1.281739 0 1.485599.817791 2.237771 2.467515 2.237771h21.738644c2.429807 0 4.110168-1.171608 5.031657-3.51951l19.386609-49.1161521c-2.460445-6.1157939-7.99409-9.3494321-12.84192-11.2919582v-.8224688s8.929718 0 14.013223-.0046865c.011784-.0046864 21.757498-.0046864 21.757498-.0046864zm-279.087406 10.4152564c.207977-.4897162.319056-.9934912.319056-1.4878937 0-1.3496486-.605025-2.026816-1.824528-2.026816-1.923791 0-4.005927.9278834-6.225139 2.7742776l-27.932771 23.2111429c-.862634.7146576-1.283315 1.3543348-1.283315 1.9213746 0 .5623536.489219.8458735 1.500745.8458735h21.802167c2.436644 0 4.117006-1.1973444 5.052904-3.6131216zm24.080464-10.4152564c1.654365 0 2.474457.787295 2.474457 2.3431398 0 .3561573-.101625.787295-.316693 1.2863838l-25.671017 64.7596984c-.935898 2.404061-2.611534 3.610778-5.057631 3.610778h-14.560775c-5.501945-.009373-12.960768-.009373-12.960768-.009373v-.883363c5.074174-2.026816 11.554558-7.198126 14.383522-11.66415l4.979639-12.6857591c.217431-.4264515.314329-.8435304.314329-1.272325 0-1.49258-.820092-2.2423848-2.460277-2.2423848h-27.616078c-2.424827 0-4.750391.9231971-6.97433 2.7766207l-27.942225 23.2181722c-2.214485 1.834679-4.542413 2.762562-6.97433 2.762562h-.909901c-1.933243 0-9.212449 0-13.967567-.009373h-4.265898v-.883363c2.179035-.873991 4.613315-2.310336 6.891612-4.018485 1.132058-.85056 2.231029-1.764384 3.247282-2.70867l4.951278-4.123926 69.041377-57.4795623c2.290114-1.8487373 4.658219-2.7766207 7.085409-2.7766207zm-94.072313-38.802c0 .57265306-.11515 1.11479592-.31725 1.61l-4.92795 12.1970408s.27965-6.3132653-.0141-8.2048979c-.13395-.83551025-.67445-1.43632657-1.52515-1.43632657-.3196 0-.5969.0610204-.86245.26285714-6.4766 4.83938773-22.05945 21.12714283-53.56355 52.47989793-26.0803 25.9407143-50.97855 50.9074486-50.97855 50.9074486l-.54755-.544489c2.4064-13.8375514 1.74135-35.1125514 1.0622-39.3581637-3.64485-2.8961224-11.0168-5.1867346-16.00585-5.1867346-.1551-.3825511-.29375-.7158164-.29375-.7158164s12.42445-5.0154081 14.81205-5.977653c-8.72085-5.674898-19.6413-6.4071429-26.00275-5.3181633-.141-.3473469-.28905-.7134694-.28905-.7134694s16.92235-6.8295918 18.2501-7.3670408c-5.6635-2.7506122-10.66195-2.3563265-10.66195-2.3563265l-.28905-.7158164 97.75295-39.44265302 11.33405 2.91959183-21.70225 8.74938779 11.3317 2.9219387 10.37055-11.67132649 17.29835-6.96806122c.47705-.1877551.9964-.29336735 1.5369-.29336735 2.3406 0 4.23235 1.88928572 4.23235 4.22214286zm-102.4009527 101.121997 38.1191061-38.319997-10.6807954 32.599464 5.8811528 4.070197 41.3565672-21.8284757-12.2123452-4.9581114 19.1443772-3.9754866 7.33966 10.81124s-62.22335 50.4950727-63.222392 51.2811727c-12.3254447-5.793934-24.8747313-16.574393-27.777608-19.737735 1.0249605-3.861833 2.0522773-9.942268 2.0522773-9.942268z" fill="#fff" fill-rule="evenodd" transform="translate(0 -1)"/></svg>