<?xml version="1.0" encoding="UTF-8"?>
<svg width="776px" height="1013px" viewBox="0 0 776 1013" version="1.1" xmlns="http://www.w3.org/2000/svg" xmlns:xlink="http://www.w3.org/1999/xlink">
    <!-- Generator: Sketch 52.4 (67378) - http://www.bohemiancoding.com/sketch -->
    <title>hud-a-box</title>
    <desc>Created with Sketch.</desc>
    <g id="Page-1" stroke="none" stroke-width="1" fill="none" fill-rule="evenodd">
        <g id="Desktop-HD" transform="translate(-2497.000000, -480.000000)">
            <g id="hud-a-box" transform="translate(2497.000000, 480.000000)">
                <path d="M756.733065,286.471252 L737.376885,298.784434 L768.742038,266.429946 L769.226115,265.88235 L769.226115,113.061066 L244.845465,113.061066 L38.440965,319.33347 L39.462165,319.33347 L39.462165,938 L711,938 L661.53425,996 L39.462165,996 L39.462165,1006.46628 L665.602065,1006.46628 L769.226115,893.840109 L769.226115,605.042104 L756.733065,590.83765 L756.733065,286.471252 Z M323.966265,33.9909016 L775.764015,33.9909016 L775.764015,268.350519 L763.270965,282.482869 L763.270965,588.369481 L775.764015,602.573934 L775.764015,896.385929 L668.471415,1013 L32.924265,1013 L32.924265,324.846639 L3.92385,353.828495 L5.68434189e-14,349.907156 L349.9608,0.170325137 L353.88465,4.09166393 L323.966265,33.9909016 Z M317.428365,40.5246175 L252.659865,105.251667 L769.226115,105.251667 L769.226115,40.5246175 L317.428365,40.5246175 Z M251.827365,106.083634 L247.620465,110.287842 L769.226115,110.287842 L769.226115,106.083634 L251.827365,106.083634 Z M296.41551,911.070705 C296.41551,910.455049 296.83176,910.022426 297.42006,910.022426 C298.00281,910.022426 298.40241,910.455049 298.40241,911.070705 C298.40241,911.669721 298.01946,912.118984 297.39786,912.118984 C296.81511,912.118984 296.41551,911.669721 296.41551,911.070705 Z M600.78195,96.7228934 L599.6775,95.8909262 L630.6465,54.830571 L631.7565,55.6625383 L600.78195,96.7228934 Z M660.219675,84.0564699 L623.800575,84.0564699 L630.954525,73.5404044 L667.379175,73.5404044 L660.219675,84.0564699 Z M704.35938,84.0564699 L667.94028,84.0564699 L675.09423,73.5404044 L711.51888,73.5404044 L704.35938,84.0564699 Z M748.499085,84.0564699 L712.079985,84.0564699 L719.233935,73.5404044 L755.658585,73.5404044 L748.499085,84.0564699 Z M39.5312877,301 L33,301 L33,131.027407 L135.687589,34 L295,34 L295,40.5305843 L138.287906,40.5305843 L39.5312877,133.843653 L39.5312877,301 Z" fill="#4A90E2"></path>
                <path d="M611.71656,996.54979 L576.82926,996.54979 L642.61896,938.095773 L669.480128,938.095773 L732.946875,938.093555 L732.946875,940.839046 L675.509925,996.547571 L611.719057,996.547571 Z M407.36667,938.095773 L341.57697,996.54979 L306.68967,996.54979 L372.47937,938.095773 L407.36667,938.095773 Z M339.83205,938.095773 L274.04235,996.54979 L239.15505,996.54979 L304.94475,938.095773 L339.83205,938.095773 Z M272.2941,938.095773 L206.5044,996.54979 L171.6171,996.54979 L237.4068,938.095773 L272.2941,938.095773 Z M204.7617,938.095773 L138.972,996.54979 L104.0847,996.54979 L169.8744,938.095773 L204.7617,938.095773 Z M137.22708,938.095773 L71.43738,996.54979 L36.55008,996.54979 L102.33978,938.095773 L137.22708,938.095773 Z M542.436465,938.095773 L476.646765,996.54979 L441.759465,996.54979 L507.549165,938.095773 L542.436465,938.095773 Z M474.89907,938.095773 L409.11492,996.54979 L374.22762,996.54979 L440.01732,938.095773 L474.89907,938.095773 Z M609.968865,938.095773 L544.179165,996.54979 L509.297415,996.54979 L575.087115,938.095773 L609.968865,938.095773 Z" id="hud-a-bar" fill="#B9D1EE"></path>
                <path d="M647.252655,858.441568 C648.912105,858.103235 649.827855,859.140421 649.295055,860.748891 L641.025555,885.491596 C640.492755,887.094519 639.133005,887.377388 638.011905,886.101705 L620.701455,866.594847 C619.580355,865.32471 620.018805,863.999109 621.678255,863.666322 L630.214155,861.919191 C630.103155,860.67124 630.025455,859.412197 630.025455,858.153153 C630.025455,855.307825 630.308505,852.468044 630.874605,849.705913 C631.435155,846.988153 632.262105,844.348044 633.327705,841.813317 C634.387755,839.322962 635.686455,836.92135 637.201605,834.691678 C638.694555,832.489738 640.415055,830.398727 642.324255,828.490749 C644.211255,826.593863 646.303605,824.868918 648.534705,823.360284 C650.371755,822.128973 652.330905,821.069601 654.340005,820.132251 C654.745155,820.964219 655.272405,821.757361 656.032755,822.428481 L661.427355,827.209519 C660.705855,827.464656 659.978805,827.703153 659.279505,828.002661 C657.325905,828.823536 655.455555,829.838536 653.707305,831.014383 C651.964605,832.195776 650.338455,833.538016 648.867705,835.013372 C647.369205,836.510913 646.020555,838.147115 644.860605,839.860967 C643.678455,841.602552 642.662805,843.471705 641.846955,845.412962 C641.008905,847.381951 640.370655,849.44523 639.943305,851.55288 C639.493755,853.704902 639.277305,855.929027 639.277305,858.153153 C639.277305,858.785448 639.332805,859.417743 639.366105,860.055585 L647.252655,858.441568 Z M713.207745,861.147126 C714.728445,860.398355 715.877295,861.180404 715.760745,862.866525 L713.940345,888.879366 C713.818245,890.576579 712.575045,891.181142 711.165345,890.227153 L703.939245,885.357372 C703.212195,886.194885 702.479595,887.032399 701.697045,887.814448 C699.804495,889.711333 697.717695,891.425186 695.492145,892.93382 C693.244395,894.448 690.846795,895.751415 688.349295,896.810787 C685.824045,897.875705 683.165595,898.702126 680.468295,899.262317 C677.698845,899.822508 674.851695,900.105377 672.010095,900.105377 C669.168495,900.105377 666.321345,899.822508 663.557445,899.262317 C660.854595,898.702126 658.190595,897.875705 655.665345,896.799694 C653.178945,895.751415 650.781345,894.448 648.539145,892.93382 C646.929645,891.863355 645.436695,890.626497 643.993695,889.339721 C644.587545,888.651962 645.103695,887.886552 645.414495,886.949202 L647.723295,880.038328 C648.111795,880.448765 648.461445,880.892481 648.866595,881.286279 C650.337345,882.756087 651.963495,884.103874 653.706195,885.279721 C655.454445,886.466661 657.330345,887.481661 659.267295,888.302536 C661.243095,889.134503 663.307695,889.777891 665.405595,890.204967 C669.723495,891.081306 674.296695,891.081306 678.620145,890.204967 C680.718045,889.777891 682.777095,889.134503 684.747345,888.302536 C686.700945,887.481661 688.565745,886.466661 690.313995,885.290814 C692.051145,884.103874 693.677295,882.756087 695.159145,881.286279 C695.525445,880.92576 695.858445,880.520869 696.202545,880.138164 L689.525895,875.639995 C688.121745,874.697098 688.221645,873.316033 689.742345,872.572809 L713.207745,861.147126 Z M678.631245,836.277407 L659.095245,818.972489 C657.824295,817.84656 658.107345,816.48768 659.705745,815.960768 L684.469845,807.69656 C686.073795,807.147462 687.117195,808.084811 686.773095,809.737653 L685.030395,818.273637 C686.151495,818.639702 687.272595,819.0335 688.354845,819.493855 C690.846795,820.542134 693.244395,821.845549 695.492145,823.370822 C697.717695,824.868363 699.804495,826.593309 701.697045,828.490194 C703.611795,830.398172 705.337845,832.489183 706.819695,834.691123 C708.334845,836.920795 709.633545,839.322407 710.688045,841.818309 C711.764745,844.347489 712.586145,846.987598 713.141145,849.694265 C713.579595,851.862926 713.801595,854.070413 713.895945,856.288992 C712.985745,856.344456 712.064445,856.555221 711.176445,856.987844 L704.644095,860.171505 C704.688495,859.500385 704.755095,858.829265 704.755095,858.152598 C704.755095,855.928473 704.533095,853.704347 704.089095,851.541232 C703.656195,849.450221 703.012395,847.381396 702.179895,845.417954 C701.352945,843.47115 700.348395,841.601997 699.160695,839.860413 C698.000745,838.14656 696.652095,836.510358 695.159145,835.012817 C693.677295,833.537462 692.051145,832.195221 690.313995,831.013828 C688.565745,829.837981 686.700945,828.822981 684.752895,828.002107 C684.231195,827.780249 683.692845,827.613855 683.160045,827.41973 L681.550545,835.295686 C681.211995,836.954074 679.896645,837.392243 678.631245,836.277407 Z" id="hud-a-cycle" fill="#4A90E2"></path>
                <path d="M137.43576,137.118784 L137.43576,97.7445492 C137.43576,95.1820902 135.35451,93.1021721 132.79041,93.1021721 C130.22631,93.1021721 128.14506,95.1820902 128.14506,97.7445492 L128.14506,137.118784 C128.14506,139.681243 130.22631,141.761161 132.79041,141.761161 C135.35451,141.761161 137.43576,139.681243 137.43576,137.118784 M132.79041,160.369495 C124.22676,160.369495 116.17371,157.036079 110.11866,150.984904 C104.06361,144.93373 100.72806,136.885833 100.72806,128.327664 C100.72806,119.769495 104.06361,111.721598 110.11866,105.670423 C111.67266,104.117418 114.19791,104.117418 115.75191,105.670423 C117.30591,107.223429 117.30591,109.741516 115.75191,111.300068 C111.19536,115.848156 108.69231,121.893784 108.69231,128.327664 C108.69231,134.761544 111.19536,140.812719 115.75191,145.360806 C120.30291,149.908893 126.35241,152.415888 132.79041,152.415888 C139.22841,152.415888 145.28346,149.908893 149.82891,145.360806 C154.38546,140.812719 156.88851,134.761544 156.88851,128.327664 C156.88851,121.893784 154.38546,115.848156 149.82891,111.300068 C148.27491,109.741516 148.27491,107.223429 149.82891,105.670423 C151.38846,104.117418 153.90816,104.117418 155.46216,105.670423 C161.51721,111.721598 164.85276,119.769495 164.85276,128.327664 C164.85276,136.885833 161.51721,144.93373 155.46216,150.984904 C149.40711,157.036079 141.35406,160.369495 132.79041,160.369495" id="hud-a-power" fill="#B9D1EE"></path>
            </g>
        </g>
    </g>
</svg>